<mxfile host="Electron" agent="Mozilla/5.0 (Windows NT 10.0; Win64; x64) AppleWebKit/537.36 (KHTML, like Gecko) draw.io/26.0.4 Chrome/128.0.6613.186 Electron/32.2.5 Safari/537.36" version="26.0.4">
  <diagram name="Page-1" id="2YBvvXClWsGukQMizWep">
    <mxGraphModel dx="633" dy="600" grid="1" gridSize="10" guides="1" tooltips="1" connect="1" arrows="1" fold="1" page="1" pageScale="1" pageWidth="850" pageHeight="1100" math="0" shadow="0">
      <root>
        <mxCell id="0" />
        <mxCell id="1" parent="0" />
        <mxCell id="aM9ryv3xv72pqoxQDRHE-1" value="AndroidManifest" style="shape=umlLifeline;perimeter=lifelinePerimeter;whiteSpace=wrap;html=1;container=0;dropTarget=0;collapsible=0;recursiveResize=0;outlineConnect=0;portConstraint=eastwest;newEdgeStyle={&quot;edgeStyle&quot;:&quot;elbowEdgeStyle&quot;,&quot;elbow&quot;:&quot;vertical&quot;,&quot;curved&quot;:0,&quot;rounded&quot;:0};" parent="1" vertex="1">
          <mxGeometry x="40" y="40" width="100" height="480" as="geometry" />
        </mxCell>
        <mxCell id="aM9ryv3xv72pqoxQDRHE-2" value="" style="html=1;points=[];perimeter=orthogonalPerimeter;outlineConnect=0;targetShapes=umlLifeline;portConstraint=eastwest;newEdgeStyle={&quot;edgeStyle&quot;:&quot;elbowEdgeStyle&quot;,&quot;elbow&quot;:&quot;vertical&quot;,&quot;curved&quot;:0,&quot;rounded&quot;:0};" parent="aM9ryv3xv72pqoxQDRHE-1" vertex="1">
          <mxGeometry x="45" y="70" width="10" height="330" as="geometry" />
        </mxCell>
        <mxCell id="aM9ryv3xv72pqoxQDRHE-5" value="UI组件&lt;div&gt;MainActivity&lt;/div&gt;" style="shape=umlLifeline;perimeter=lifelinePerimeter;whiteSpace=wrap;html=1;container=0;dropTarget=0;collapsible=0;recursiveResize=0;outlineConnect=0;portConstraint=eastwest;newEdgeStyle={&quot;edgeStyle&quot;:&quot;elbowEdgeStyle&quot;,&quot;elbow&quot;:&quot;vertical&quot;,&quot;curved&quot;:0,&quot;rounded&quot;:0};" parent="1" vertex="1">
          <mxGeometry x="180" y="40" width="100" height="330" as="geometry" />
        </mxCell>
        <mxCell id="aM9ryv3xv72pqoxQDRHE-6" value="" style="html=1;points=[];perimeter=orthogonalPerimeter;outlineConnect=0;targetShapes=umlLifeline;portConstraint=eastwest;newEdgeStyle={&quot;edgeStyle&quot;:&quot;elbowEdgeStyle&quot;,&quot;elbow&quot;:&quot;vertical&quot;,&quot;curved&quot;:0,&quot;rounded&quot;:0};" parent="aM9ryv3xv72pqoxQDRHE-5" vertex="1">
          <mxGeometry x="45" y="80" width="10" height="210" as="geometry" />
        </mxCell>
        <mxCell id="KMCO-ooCl1VtuAHiM1PG-2" style="edgeStyle=elbowEdgeStyle;rounded=0;orthogonalLoop=1;jettySize=auto;html=1;elbow=vertical;curved=0;" edge="1" parent="aM9ryv3xv72pqoxQDRHE-5">
          <mxGeometry relative="1" as="geometry">
            <mxPoint x="55" y="100" as="sourcePoint" />
            <mxPoint x="55" y="120" as="targetPoint" />
          </mxGeometry>
        </mxCell>
        <mxCell id="KMCO-ooCl1VtuAHiM1PG-3" value=":AppCompatActivity()" style="edgeLabel;html=1;align=center;verticalAlign=middle;resizable=0;points=[];" vertex="1" connectable="0" parent="KMCO-ooCl1VtuAHiM1PG-2">
          <mxGeometry x="-0.0276" y="-1" relative="1" as="geometry">
            <mxPoint x="66" y="1" as="offset" />
          </mxGeometry>
        </mxCell>
        <mxCell id="KMCO-ooCl1VtuAHiM1PG-7" value="" style="edgeStyle=elbowEdgeStyle;rounded=0;orthogonalLoop=1;jettySize=auto;html=1;elbow=horizontal;curved=0;entryX=1;entryY=0;entryDx=0;entryDy=5;entryPerimeter=0;" edge="1" parent="aM9ryv3xv72pqoxQDRHE-5" target="KMCO-ooCl1VtuAHiM1PG-26">
          <mxGeometry y="45" relative="1" as="geometry">
            <mxPoint x="55" y="140" as="sourcePoint" />
            <mxPoint x="55" y="160" as="targetPoint" />
            <Array as="points">
              <mxPoint x="80" y="150" />
            </Array>
            <mxPoint as="offset" />
          </mxGeometry>
        </mxCell>
        <mxCell id="KMCO-ooCl1VtuAHiM1PG-8" value="OnCreate" style="edgeLabel;html=1;align=center;verticalAlign=middle;resizable=0;points=[];" vertex="1" connectable="0" parent="KMCO-ooCl1VtuAHiM1PG-7">
          <mxGeometry x="-0.28" relative="1" as="geometry">
            <mxPoint x="35" y="3" as="offset" />
          </mxGeometry>
        </mxCell>
        <mxCell id="KMCO-ooCl1VtuAHiM1PG-26" value="" style="html=1;points=[[0,0,0,0,5],[0,1,0,0,-5],[1,0,0,0,5],[1,1,0,0,-5]];perimeter=orthogonalPerimeter;outlineConnect=0;targetShapes=umlLifeline;portConstraint=eastwest;newEdgeStyle={&quot;curved&quot;:0,&quot;rounded&quot;:0};" vertex="1" parent="aM9ryv3xv72pqoxQDRHE-5">
          <mxGeometry x="50" y="170" width="10" height="60" as="geometry" />
        </mxCell>
        <mxCell id="aM9ryv3xv72pqoxQDRHE-7" value="intent-filte" style="html=1;verticalAlign=bottom;endArrow=block;edgeStyle=elbowEdgeStyle;elbow=horizontal;curved=0;rounded=0;" parent="1" source="aM9ryv3xv72pqoxQDRHE-2" target="aM9ryv3xv72pqoxQDRHE-6" edge="1">
          <mxGeometry x="0.0017" relative="1" as="geometry">
            <mxPoint x="195" y="130" as="sourcePoint" />
            <Array as="points">
              <mxPoint x="180" y="120" />
            </Array>
            <mxPoint as="offset" />
          </mxGeometry>
        </mxCell>
        <mxCell id="KMCO-ooCl1VtuAHiM1PG-13" style="edgeStyle=orthogonalEdgeStyle;rounded=0;orthogonalLoop=1;jettySize=auto;html=1;curved=0;" edge="1" parent="1" source="KMCO-ooCl1VtuAHiM1PG-19" target="KMCO-ooCl1VtuAHiM1PG-12">
          <mxGeometry relative="1" as="geometry">
            <mxPoint x="460" y="270" as="sourcePoint" />
            <mxPoint x="549.5000000000001" y="260" as="targetPoint" />
            <Array as="points">
              <mxPoint x="430" y="280" />
              <mxPoint x="430" y="280" />
            </Array>
          </mxGeometry>
        </mxCell>
        <mxCell id="KMCO-ooCl1VtuAHiM1PG-9" value="布局文件&lt;div&gt;activity_main.xml&lt;/div&gt;" style="shape=umlLifeline;whiteSpace=wrap;html=1;container=1;dropTarget=0;collapsible=0;recursiveResize=0;outlineConnect=0;portConstraint=eastwest;newEdgeStyle={&quot;curved&quot;:0,&quot;rounded&quot;:0};points=[[0,0,0,0,5],[0,1,0,0,-5],[1,0,0,0,5],[1,1,0,0,-5]];perimeter=rectanglePerimeter;targetShapes=umlLifeline;participant=label;" vertex="1" parent="1">
          <mxGeometry x="330" y="40" width="100" height="300" as="geometry" />
        </mxCell>
        <mxCell id="KMCO-ooCl1VtuAHiM1PG-19" value="" style="html=1;points=[[0,0,0,0,5],[0,1,0,0,-5],[1,0,0,0,5],[1,1,0,0,-5]];perimeter=orthogonalPerimeter;outlineConnect=0;targetShapes=umlLifeline;portConstraint=eastwest;newEdgeStyle={&quot;curved&quot;:0,&quot;rounded&quot;:0};" vertex="1" parent="KMCO-ooCl1VtuAHiM1PG-9">
          <mxGeometry x="45" y="160" width="10" height="90" as="geometry" />
        </mxCell>
        <mxCell id="KMCO-ooCl1VtuAHiM1PG-10" style="edgeStyle=elbowEdgeStyle;rounded=0;orthogonalLoop=1;jettySize=auto;html=1;elbow=horizontal;curved=0;" edge="1" parent="1" source="KMCO-ooCl1VtuAHiM1PG-26" target="KMCO-ooCl1VtuAHiM1PG-19">
          <mxGeometry relative="1" as="geometry">
            <mxPoint x="270" y="240" as="sourcePoint" />
            <mxPoint x="405" y="250" as="targetPoint" />
            <Array as="points">
              <mxPoint x="340" y="240" />
            </Array>
          </mxGeometry>
        </mxCell>
        <mxCell id="KMCO-ooCl1VtuAHiM1PG-11" value="setContentView&lt;div&gt;如果不设置默认白屏&lt;/div&gt;" style="edgeLabel;html=1;align=center;verticalAlign=middle;resizable=0;points=[];" vertex="1" connectable="0" parent="KMCO-ooCl1VtuAHiM1PG-10">
          <mxGeometry x="-0.1764" y="-1" relative="1" as="geometry">
            <mxPoint x="13" y="19" as="offset" />
          </mxGeometry>
        </mxCell>
        <mxCell id="KMCO-ooCl1VtuAHiM1PG-12" value="UI交互&lt;br&gt;CustomView" style="shape=umlLifeline;perimeter=lifelinePerimeter;whiteSpace=wrap;html=1;container=1;dropTarget=0;collapsible=0;recursiveResize=0;outlineConnect=0;portConstraint=eastwest;newEdgeStyle={&quot;curved&quot;:0,&quot;rounded&quot;:0};" vertex="1" parent="1">
          <mxGeometry x="460" y="40" width="100" height="300" as="geometry" />
        </mxCell>
        <mxCell id="KMCO-ooCl1VtuAHiM1PG-20" value="" style="html=1;points=[[0,0,0,0,5],[0,1,0,0,-5],[1,0,0,0,5],[1,1,0,0,-5]];perimeter=orthogonalPerimeter;outlineConnect=0;targetShapes=umlLifeline;portConstraint=eastwest;newEdgeStyle={&quot;curved&quot;:0,&quot;rounded&quot;:0};" vertex="1" parent="KMCO-ooCl1VtuAHiM1PG-12">
          <mxGeometry x="45" y="180" width="10" height="80" as="geometry" />
        </mxCell>
        <mxCell id="KMCO-ooCl1VtuAHiM1PG-21" value="其他UI组件" style="shape=umlLifeline;perimeter=lifelinePerimeter;whiteSpace=wrap;html=1;container=1;dropTarget=0;collapsible=0;recursiveResize=0;outlineConnect=0;portConstraint=eastwest;newEdgeStyle={&quot;curved&quot;:0,&quot;rounded&quot;:0};" vertex="1" parent="1">
          <mxGeometry x="590" y="40" width="100" height="420" as="geometry" />
        </mxCell>
        <mxCell id="KMCO-ooCl1VtuAHiM1PG-23" value="" style="html=1;points=[[0,0,0,0,5],[0,1,0,0,-5],[1,0,0,0,5],[1,1,0,0,-5]];perimeter=orthogonalPerimeter;outlineConnect=0;targetShapes=umlLifeline;portConstraint=eastwest;newEdgeStyle={&quot;curved&quot;:0,&quot;rounded&quot;:0};" vertex="1" parent="KMCO-ooCl1VtuAHiM1PG-21">
          <mxGeometry x="45" y="320" width="10" height="80" as="geometry" />
        </mxCell>
        <mxCell id="KMCO-ooCl1VtuAHiM1PG-24" style="edgeStyle=elbowEdgeStyle;rounded=0;orthogonalLoop=1;jettySize=auto;html=1;elbow=vertical;curved=0;" edge="1" parent="1" source="aM9ryv3xv72pqoxQDRHE-2" target="KMCO-ooCl1VtuAHiM1PG-23">
          <mxGeometry relative="1" as="geometry" />
        </mxCell>
        <mxCell id="KMCO-ooCl1VtuAHiM1PG-25" value="startActivity" style="edgeLabel;html=1;align=center;verticalAlign=middle;resizable=0;points=[];" vertex="1" connectable="0" parent="KMCO-ooCl1VtuAHiM1PG-24">
          <mxGeometry x="-0.0728" y="-4" relative="1" as="geometry">
            <mxPoint x="30" y="16" as="offset" />
          </mxGeometry>
        </mxCell>
      </root>
    </mxGraphModel>
  </diagram>
</mxfile>
